<svg xmlns="http://www.w3.org/2000/svg" xmlns:xlink="http://www.w3.org/1999/xlink" width="21.99" height="16.645" viewBox="0 0 21.99 16.645">
  <defs>
    <linearGradient id="linear-gradient" x1="0.5" x2="0.5" y2="1" gradientUnits="objectBoundingBox">
      <stop offset="0" stop-color="#b6f829"/>
      <stop offset="1" stop-color="#67dd0a"/>
    </linearGradient>
  </defs>
  <g id="cursos" transform="translate(-1 -4.5)">
    <path id="Caminho_1" data-name="Caminho 1" d="M17.5,4.5A9.3,9.3,0,0,0,12,6,9.3,9.3,0,0,0,6.5,4.5a10.819,10.819,0,0,0-4.28.79A2.037,2.037,0,0,0,1,7.14V18.42a2,2,0,0,0,2.48,1.94A12.35,12.35,0,0,1,6.5,20a10.574,10.574,0,0,1,4.56.92,2.055,2.055,0,0,0,1.87,0A10.43,10.43,0,0,1,17.49,20a12.35,12.35,0,0,1,3.02.36,1.986,1.986,0,0,0,2.48-1.94V7.14a2.037,2.037,0,0,0-1.22-1.85A10.738,10.738,0,0,0,17.5,4.5ZM21,17.23a1.01,1.01,0,0,1-1.2.98,12.609,12.609,0,0,0-2.3-.2,12.045,12.045,0,0,0-5.5,1.5V8a12.045,12.045,0,0,1,5.5-1.5,12.687,12.687,0,0,1,2.7.28,1.014,1.014,0,0,1,.8.98Z" fill="url(#linear-gradient)"/>
    <path id="Caminho_2" data-name="Caminho 2" d="M13.98,11.01a.749.749,0,0,1-.23-1.46,13.3,13.3,0,0,1,5.36-.45.75.75,0,0,1-.17,1.49,11.82,11.82,0,0,0-4.73.39A2.079,2.079,0,0,1,13.98,11.01Z" fill="url(#linear-gradient)"/>
    <path id="Caminho_3" data-name="Caminho 3" d="M13.98,13.67a.749.749,0,0,1-.23-1.46,13.287,13.287,0,0,1,5.36-.45.75.75,0,1,1-.17,1.49,11.82,11.82,0,0,0-4.73.39A.969.969,0,0,1,13.98,13.67Z" fill="url(#linear-gradient)"/>
    <path id="Caminho_4" data-name="Caminho 4" d="M13.98,16.33a.749.749,0,0,1-.23-1.46,13.287,13.287,0,0,1,5.36-.45.75.75,0,0,1-.17,1.49,11.82,11.82,0,0,0-4.73.39A.969.969,0,0,1,13.98,16.33Z" fill="url(#linear-gradient)"/>
  </g>
</svg>
